<svg version="1.2" xmlns="http://www.w3.org/2000/svg" viewBox="0 0 501 594" width="501" height="594"><defs><clipPath clipPathUnits="userSpaceOnUse" id="cp1"><path d="m-1419-1347h1920v4616h-1920z"/></clipPath></defs><style>.a{fill:#1a1b1b}.b{opacity:.3;fill:#fff}.c{opacity:.2;fill:#fff}.d{opacity:.1;fill:#fff}.e{opacity:.5;fill:#fff}</style><g clip-path="url(#cp1)"><path class="a" d="m36 1h469.5v592h-469.5z"/><path class="b" d="m275.2 25.4c88.9 0 161 72.1 161 161.1 0 88.9-72.1 161-161 161-88.9 0-161-72.1-161-161 0-89 72.1-161.1 161-161.1z"/><path class="c" d="m395.3 139.7c89 0 161.1 72 161.1 161 0 88.9-72.1 161-161.1 161-88.9 0-161-72.1-161-161 0-89 72.1-161 161-161z"/><path class="d" d="m275.2 246.5c88.9 0 161 72.1 161 161 0 89-72.1 161.1-161 161.1-88.9 0-161-72.1-161-161.1 0-88.9 72.1-161 161-161z"/><path class="e" d="m162.5 139.7c88.9 0 161 72 161 161 0 88.9-72.1 161-161 161-89 0-161.1-72.1-161.1-161 0-89 72.1-161 161.1-161z"/></g></svg>